FFmpeg version SVN-r25716, Copyright (c) 2000-2010 the FFmpeg developers  built on Nov 10 2010 12:23:18 with gcc 4.1.2 20080704 (Red Hat 4.1.2-48)  configuration: --enable-libmp3lame --enable-shared --disable-mmx --arch=x86_64  libavutil     50.33. 0 / 50.33. 0  libavcore      0.12. 1 /  0.12. 1  libavcodec    52.94. 4 / 52.94. 4  libavformat   52.84. 0 / 52.84. 0  libavdevice   52. 2. 2 / 52. 2. 2  libavfilter    1.59. 0 /  1.59. 0  libswscale     0.12. 0 /  0.12. 0Seems stream 0 codec frame rate differs from container frame rate: 5994.00 (5994/1) -> 29.97 (2997/100)Input #0, mov,mp4,m4a,3gp,3g2,mj2, from '/RAID10/data/converted_video_files/25608.mov':  Metadata:    major_brand     : qt      minor_version   : 537199360    compatible_brands: qt    Duration: 00:00:25.52, start: 0.000000, bitrate: 4966 kb/s    Stream #0.0(eng): Video: h264, yuv420p, 720x480, 4962 kb/s, 29.97 fps, 29.97 tbr, 2997 tbn, 5994 tbc[buffer @ 0x19dde4c0] w:720 h:480 pixfmt:yuv420pOutput #0, flv, to '/RAID10/data/converted_video_files/25608.flv':  Metadata:    encoder         : Lavf52.84.0    Stream #0.0(eng): Video: flv, yuv420p, 720x480, q=2-31, 600 kb/s, 1k tbn, 24 tbcStream mapping:  Stream #0.0 -> #0.0Press [q] to stop encodingframe=   45 fps=  0 q=4.1 size=     517kB time=1.88 bitrate=2257.4kbits/s dup=0 drop=11    frame=   83 fps= 80 q=8.6 size=     655kB time=3.46 bitrate=1550.6kbits/s dup=0 drop=20    frame=  127 fps= 82 q=5.4 size=     778kB time=5.29 bitrate=1203.7kbits/s dup=0 drop=31    frame=  171 fps= 84 q=4.8 size=     914kB time=7.12 bitrate=1051.1kbits/s dup=0 drop=42    frame=  212 fps= 83 q=6.5 size=    1047kB time=8.83 bitrate= 970.6kbits/s dup=0 drop=52    frame=  253 fps= 82 q=4.4 size=    1179kB time=10.54 bitrate= 916.1kbits/s dup=0 drop=62    frame=  294 fps= 82 q=7.8 size=    1294kB time=12.25 bitrate= 865.2kbits/s dup=0 drop=73    frame=  338 fps= 83 q=6.5 size=    1435kB time=14.08 bitrate= 834.5kbits/s dup=0 drop=84    frame=  383 fps= 83 q=6.5 size=    1552kB time=15.96 bitrate= 796.6kbits/s dup=0 drop=95    frame=  426 fps= 84 q=6.7 size=    1686kB time=17.75 bitrate= 778.1kbits/s dup=0 drop=105    frame=  470 fps= 84 q=6.8 size=    1821kB time=19.58 bitrate= 761.9kbits/s dup=0 drop=116    frame=  513 fps= 84 q=6.5 size=    1927kB time=21.38 bitrate= 738.6kbits/s dup=0 drop=127    frame=  552 fps= 84 q=6.5 size=    2054kB time=23.00 bitrate= 731.6kbits/s dup=0 drop=137    frame=  593 fps= 83 q=6.5 size=    2183kB time=24.71 bitrate= 723.9kbits/s dup=0 drop=147    frame=  613 fps= 83 q=5.2 Lsize=    2282kB time=25.54 bitrate= 731.8kbits/s dup=0 drop=152    video:2272kB audio:0kB global headers:0kB muxing overhead 0.430612%